# xmcd
#
# Track frame offsets:
#	150
#	13157
#	26823
#	43878
#	54190
#	68369
#	80755
#	93143
#	108895
#	115161
#
# Disc length: 1712 seconds
#
# Revision: 2
# Processed by: cddbd v1.5.2PL0 Copyright (c) Steve Scherf et al.
# Submitted via: audiograbber 1.83.01
#
DISCID=7506ae0a
DTITLE=Various Artist - Country #1s From the 70s
DYEAR=2006
DGENRE=Country
TTITLE0=Tammy Wynette and David Houston - My Elusive Dream
TTITLE1=Willie Nelson - Heartbreak Hotel
TTITLE2=Glen Campbell - Southern Nights (live)
TTITLE3=Conway Twitty - (I Can't Believe) She Gives It All To Me
TTITLE4=Cal Smith - The Lord Knows I'm Drinking
TTITLE5=Freddy Fender - Wasted Days and Wasted Nights
TTITLE6=Charlie Rich - Behind Closed Doors
TTITLE7=Ray Price - I Won't Mention It Again
TTITLE8=Mickey Gilley - I Overlooked An Orchid (live)
TTITLE9=Conway Twitty - After All the Good Is Gone
EXTD=
EXTT0=
EXTT1=
EXTT2=
EXTT3=
EXTT4=
EXTT5=
EXTT6=
EXTT7=
EXTT8=
EXTT9=
PLAYORDER=
